<mxfile host="app.diagrams.net" modified="2024-09-12T15:22:58.440Z" agent="Mozilla/5.0 (X11; Linux x86_64; rv:130.0) Gecko/20100101 Firefox/130.0" etag="jK2Y9qCIpXo2_mmgqfo9" version="24.2.7" type="device">
  <diagram id="1wQzsUYv8DGshhQA8DcK" name="Página-1">
    <mxGraphModel dx="2074" dy="1286" grid="1" gridSize="10" guides="1" tooltips="1" connect="1" arrows="1" fold="1" page="1" pageScale="1" pageWidth="827" pageHeight="1169" math="0" shadow="0">
      <root>
        <mxCell id="0" />
        <mxCell id="1" parent="0" />
        <mxCell id="sSPdWtcWhdDb-kHmD-bd-8" style="edgeStyle=orthogonalEdgeStyle;rounded=0;orthogonalLoop=1;jettySize=auto;html=1;" parent="1" source="sSPdWtcWhdDb-kHmD-bd-1" target="sSPdWtcWhdDb-kHmD-bd-3" edge="1">
          <mxGeometry relative="1" as="geometry" />
        </mxCell>
        <mxCell id="sSPdWtcWhdDb-kHmD-bd-1" value="Usuario" style="verticalLabelPosition=bottom;html=1;verticalAlign=top;align=center;strokeColor=none;fillColor=#00BEF2;shape=mxgraph.azure.user;" parent="1" vertex="1">
          <mxGeometry x="50" y="170" width="47.5" height="50" as="geometry" />
        </mxCell>
        <mxCell id="sSPdWtcWhdDb-kHmD-bd-3" value="" style="rounded=1;whiteSpace=wrap;html=1;" parent="1" vertex="1">
          <mxGeometry x="180" y="90" width="320" height="240" as="geometry" />
        </mxCell>
        <mxCell id="sSPdWtcWhdDb-kHmD-bd-2" value="" style="shape=image;html=1;verticalAlign=top;verticalLabelPosition=bottom;labelBackgroundColor=#ffffff;imageAspect=0;aspect=fixed;image=https://cdn2.iconfinder.com/data/icons/crystalproject/16x16/actions/kdb_form.png" parent="1" vertex="1">
          <mxGeometry x="200" y="90" width="16" height="16" as="geometry" />
        </mxCell>
        <mxCell id="sSPdWtcWhdDb-kHmD-bd-4" value="Programar Atención Médica" style="rounded=0;whiteSpace=wrap;html=1;" parent="1" vertex="1">
          <mxGeometry x="200" y="120" width="120" height="50" as="geometry" />
        </mxCell>
        <mxCell id="sSPdWtcWhdDb-kHmD-bd-5" value="&lt;div&gt;Registrar Diagnóstico y&lt;/div&gt;&lt;div&gt;tratamiento&lt;/div&gt;" style="rounded=0;whiteSpace=wrap;html=1;" parent="1" vertex="1">
          <mxGeometry x="200" y="220" width="120" height="60" as="geometry" />
        </mxCell>
        <mxCell id="sSPdWtcWhdDb-kHmD-bd-6" value="Programar terapias del Mes" style="rounded=0;whiteSpace=wrap;html=1;" parent="1" vertex="1">
          <mxGeometry x="354" y="120" width="120" height="50" as="geometry" />
        </mxCell>
        <mxCell id="sSPdWtcWhdDb-kHmD-bd-7" value="Programar Clases de Refuerzo" style="rounded=0;whiteSpace=wrap;html=1;" parent="1" vertex="1">
          <mxGeometry x="354" y="220" width="120" height="60" as="geometry" />
        </mxCell>
        <mxCell id="sSPdWtcWhdDb-kHmD-bd-13" value="Programar Atención Médica" style="shape=umlFrame;whiteSpace=wrap;html=1;width=150;height=30;" parent="1" vertex="1">
          <mxGeometry x="40" y="400" width="1160" height="440" as="geometry" />
        </mxCell>
        <mxCell id="sSPdWtcWhdDb-kHmD-bd-15" value="Usuario" style="shape=umlActor;verticalLabelPosition=bottom;verticalAlign=top;html=1;" parent="1" vertex="1">
          <mxGeometry x="110" y="510" width="30" height="60" as="geometry" />
        </mxCell>
        <mxCell id="sSPdWtcWhdDb-kHmD-bd-16" value="Pagina Calendario" style="shape=umlLifeline;perimeter=lifelinePerimeter;whiteSpace=wrap;html=1;container=1;collapsible=0;recursiveResize=0;outlineConnect=0;" parent="1" vertex="1">
          <mxGeometry x="200" y="435" width="100" height="300" as="geometry" />
        </mxCell>
        <mxCell id="sSPdWtcWhdDb-kHmD-bd-21" value="" style="html=1;points=[];perimeter=orthogonalPerimeter;" parent="sSPdWtcWhdDb-kHmD-bd-16" vertex="1">
          <mxGeometry x="45" y="70" width="10" height="80" as="geometry" />
        </mxCell>
        <mxCell id="sSPdWtcWhdDb-kHmD-bd-22" value="Click Dia Libre" style="html=1;verticalAlign=bottom;endArrow=block;entryX=0;entryY=0;rounded=0;" parent="sSPdWtcWhdDb-kHmD-bd-16" target="sSPdWtcWhdDb-kHmD-bd-21" edge="1">
          <mxGeometry relative="1" as="geometry">
            <mxPoint x="-25" y="70" as="sourcePoint" />
          </mxGeometry>
        </mxCell>
        <mxCell id="sSPdWtcWhdDb-kHmD-bd-23" value="carga combos" style="html=1;verticalAlign=bottom;endArrow=open;dashed=1;endSize=8;exitX=0;exitY=0.95;rounded=0;" parent="sSPdWtcWhdDb-kHmD-bd-16" source="sSPdWtcWhdDb-kHmD-bd-21" edge="1">
          <mxGeometry relative="1" as="geometry">
            <mxPoint x="-25" y="146" as="targetPoint" />
          </mxGeometry>
        </mxCell>
        <mxCell id="sSPdWtcWhdDb-kHmD-bd-74" value="" style="html=1;points=[];perimeter=orthogonalPerimeter;" parent="sSPdWtcWhdDb-kHmD-bd-16" vertex="1">
          <mxGeometry x="45" y="195" width="10" height="75" as="geometry" />
        </mxCell>
        <mxCell id="sSPdWtcWhdDb-kHmD-bd-75" value="Guardar Citas" style="html=1;verticalAlign=bottom;startArrow=oval;endArrow=block;startSize=8;rounded=0;" parent="sSPdWtcWhdDb-kHmD-bd-16" target="sSPdWtcWhdDb-kHmD-bd-74" edge="1">
          <mxGeometry relative="1" as="geometry">
            <mxPoint x="-15" y="195" as="sourcePoint" />
          </mxGeometry>
        </mxCell>
        <mxCell id="sSPdWtcWhdDb-kHmD-bd-18" value="CalendarController" style="shape=umlLifeline;perimeter=lifelinePerimeter;whiteSpace=wrap;html=1;container=1;collapsible=0;recursiveResize=0;outlineConnect=0;" parent="1" vertex="1">
          <mxGeometry x="364" y="435" width="100" height="300" as="geometry" />
        </mxCell>
        <mxCell id="sSPdWtcWhdDb-kHmD-bd-31" value="" style="html=1;points=[];perimeter=orthogonalPerimeter;" parent="sSPdWtcWhdDb-kHmD-bd-18" vertex="1">
          <mxGeometry x="45" y="75" width="10" height="15" as="geometry" />
        </mxCell>
        <mxCell id="sSPdWtcWhdDb-kHmD-bd-33" value="" style="html=1;points=[];perimeter=orthogonalPerimeter;" parent="sSPdWtcWhdDb-kHmD-bd-18" vertex="1">
          <mxGeometry x="50" y="105" width="10" height="25" as="geometry" />
        </mxCell>
        <mxCell id="sSPdWtcWhdDb-kHmD-bd-76" value="" style="html=1;points=[];perimeter=orthogonalPerimeter;" parent="sSPdWtcWhdDb-kHmD-bd-18" vertex="1">
          <mxGeometry x="50" y="215" width="10" height="25" as="geometry" />
        </mxCell>
        <mxCell id="sSPdWtcWhdDb-kHmD-bd-19" value="AppointmentResource" style="shape=umlLifeline;perimeter=lifelinePerimeter;whiteSpace=wrap;html=1;container=1;collapsible=0;recursiveResize=0;outlineConnect=0;" parent="1" vertex="1">
          <mxGeometry x="520" y="430" width="130" height="320" as="geometry" />
        </mxCell>
        <mxCell id="sSPdWtcWhdDb-kHmD-bd-62" value="" style="html=1;points=[];perimeter=orthogonalPerimeter;" parent="sSPdWtcWhdDb-kHmD-bd-19" vertex="1">
          <mxGeometry x="60" y="70" width="10" height="30" as="geometry" />
        </mxCell>
        <mxCell id="sSPdWtcWhdDb-kHmD-bd-66" value="" style="html=1;points=[];perimeter=orthogonalPerimeter;" parent="sSPdWtcWhdDb-kHmD-bd-19" vertex="1">
          <mxGeometry x="60" y="115" width="10" height="15" as="geometry" />
        </mxCell>
        <mxCell id="sSPdWtcWhdDb-kHmD-bd-78" value="" style="html=1;points=[];perimeter=orthogonalPerimeter;" parent="sSPdWtcWhdDb-kHmD-bd-19" vertex="1">
          <mxGeometry x="60" y="240" width="10" height="30" as="geometry" />
        </mxCell>
        <mxCell id="sSPdWtcWhdDb-kHmD-bd-32" value="cargar doctores" style="html=1;verticalAlign=bottom;startArrow=oval;endArrow=block;startSize=8;rounded=0;exitX=0.9;exitY=0.038;exitDx=0;exitDy=0;exitPerimeter=0;" parent="1" source="sSPdWtcWhdDb-kHmD-bd-21" target="sSPdWtcWhdDb-kHmD-bd-31" edge="1">
          <mxGeometry relative="1" as="geometry">
            <mxPoint x="349" y="510" as="sourcePoint" />
          </mxGeometry>
        </mxCell>
        <mxCell id="sSPdWtcWhdDb-kHmD-bd-34" value="Cargar pacientes" style="html=1;verticalAlign=bottom;startArrow=oval;endArrow=block;startSize=8;rounded=0;" parent="1" source="sSPdWtcWhdDb-kHmD-bd-21" target="sSPdWtcWhdDb-kHmD-bd-33" edge="1">
          <mxGeometry relative="1" as="geometry">
            <mxPoint x="354" y="540" as="sourcePoint" />
          </mxGeometry>
        </mxCell>
        <mxCell id="sSPdWtcWhdDb-kHmD-bd-35" value="Historia Médica" style="swimlane;fontStyle=0;childLayout=stackLayout;horizontal=1;startSize=26;fillColor=none;horizontalStack=0;resizeParent=1;resizeParentMax=0;resizeLast=0;collapsible=1;marginBottom=0;" parent="1" vertex="1">
          <mxGeometry x="1240.5" y="42" width="140" height="130" as="geometry" />
        </mxCell>
        <mxCell id="sSPdWtcWhdDb-kHmD-bd-36" value="Registereddate" style="text;strokeColor=none;fillColor=none;align=left;verticalAlign=top;spacingLeft=4;spacingRight=4;overflow=hidden;rotatable=0;points=[[0,0.5],[1,0.5]];portConstraint=eastwest;" parent="sSPdWtcWhdDb-kHmD-bd-35" vertex="1">
          <mxGeometry y="26" width="140" height="26" as="geometry" />
        </mxCell>
        <mxCell id="sSPdWtcWhdDb-kHmD-bd-37" value="appointmetId" style="text;strokeColor=none;fillColor=none;align=left;verticalAlign=top;spacingLeft=4;spacingRight=4;overflow=hidden;rotatable=0;points=[[0,0.5],[1,0.5]];portConstraint=eastwest;" parent="sSPdWtcWhdDb-kHmD-bd-35" vertex="1">
          <mxGeometry y="52" width="140" height="26" as="geometry" />
        </mxCell>
        <mxCell id="sSPdWtcWhdDb-kHmD-bd-38" value="diagnostico&#xa;" style="text;strokeColor=none;fillColor=none;align=left;verticalAlign=top;spacingLeft=4;spacingRight=4;overflow=hidden;rotatable=0;points=[[0,0.5],[1,0.5]];portConstraint=eastwest;" parent="sSPdWtcWhdDb-kHmD-bd-35" vertex="1">
          <mxGeometry y="78" width="140" height="26" as="geometry" />
        </mxCell>
        <mxCell id="sSPdWtcWhdDb-kHmD-bd-54" value="doctorId" style="text;strokeColor=none;fillColor=none;align=left;verticalAlign=top;spacingLeft=4;spacingRight=4;overflow=hidden;rotatable=0;points=[[0,0.5],[1,0.5]];portConstraint=eastwest;" parent="sSPdWtcWhdDb-kHmD-bd-35" vertex="1">
          <mxGeometry y="104" width="140" height="26" as="geometry" />
        </mxCell>
        <mxCell id="sSPdWtcWhdDb-kHmD-bd-39" value="MedicalAppointment" style="swimlane;fontStyle=0;childLayout=stackLayout;horizontal=1;startSize=26;fillColor=none;horizontalStack=0;resizeParent=1;resizeParentMax=0;resizeLast=0;collapsible=1;marginBottom=0;" parent="1" vertex="1">
          <mxGeometry x="1020" y="198" width="140" height="130" as="geometry" />
        </mxCell>
        <mxCell id="sSPdWtcWhdDb-kHmD-bd-41" value="doctor" style="text;strokeColor=none;fillColor=none;align=left;verticalAlign=top;spacingLeft=4;spacingRight=4;overflow=hidden;rotatable=0;points=[[0,0.5],[1,0.5]];portConstraint=eastwest;" parent="sSPdWtcWhdDb-kHmD-bd-39" vertex="1">
          <mxGeometry y="26" width="140" height="26" as="geometry" />
        </mxCell>
        <mxCell id="sSPdWtcWhdDb-kHmD-bd-42" value="dateRange" style="text;strokeColor=none;fillColor=none;align=left;verticalAlign=top;spacingLeft=4;spacingRight=4;overflow=hidden;rotatable=0;points=[[0,0.5],[1,0.5]];portConstraint=eastwest;" parent="sSPdWtcWhdDb-kHmD-bd-39" vertex="1">
          <mxGeometry y="52" width="140" height="26" as="geometry" />
        </mxCell>
        <mxCell id="sSPdWtcWhdDb-kHmD-bd-53" value="title" style="text;strokeColor=none;fillColor=none;align=left;verticalAlign=top;spacingLeft=4;spacingRight=4;overflow=hidden;rotatable=0;points=[[0,0.5],[1,0.5]];portConstraint=eastwest;" parent="sSPdWtcWhdDb-kHmD-bd-39" vertex="1">
          <mxGeometry y="78" width="140" height="26" as="geometry" />
        </mxCell>
        <mxCell id="sSPdWtcWhdDb-kHmD-bd-55" value="isConflict" style="text;strokeColor=none;fillColor=none;align=left;verticalAlign=top;spacingLeft=4;spacingRight=4;overflow=hidden;rotatable=0;points=[[0,0.5],[1,0.5]];portConstraint=eastwest;" parent="sSPdWtcWhdDb-kHmD-bd-39" vertex="1">
          <mxGeometry y="104" width="140" height="26" as="geometry" />
        </mxCell>
        <mxCell id="sSPdWtcWhdDb-kHmD-bd-43" value="Patient" style="swimlane;fontStyle=0;childLayout=stackLayout;horizontal=1;startSize=26;fillColor=none;horizontalStack=0;resizeParent=1;resizeParentMax=0;resizeLast=0;collapsible=1;marginBottom=0;" parent="1" vertex="1">
          <mxGeometry x="560" y="116" width="140" height="104" as="geometry" />
        </mxCell>
        <mxCell id="sSPdWtcWhdDb-kHmD-bd-44" value="+ field: type" style="text;strokeColor=none;fillColor=none;align=left;verticalAlign=top;spacingLeft=4;spacingRight=4;overflow=hidden;rotatable=0;points=[[0,0.5],[1,0.5]];portConstraint=eastwest;" parent="sSPdWtcWhdDb-kHmD-bd-43" vertex="1">
          <mxGeometry y="26" width="140" height="26" as="geometry" />
        </mxCell>
        <mxCell id="sSPdWtcWhdDb-kHmD-bd-45" value="+ field: type" style="text;strokeColor=none;fillColor=none;align=left;verticalAlign=top;spacingLeft=4;spacingRight=4;overflow=hidden;rotatable=0;points=[[0,0.5],[1,0.5]];portConstraint=eastwest;" parent="sSPdWtcWhdDb-kHmD-bd-43" vertex="1">
          <mxGeometry y="52" width="140" height="26" as="geometry" />
        </mxCell>
        <mxCell id="sSPdWtcWhdDb-kHmD-bd-46" value="+ field: type" style="text;strokeColor=none;fillColor=none;align=left;verticalAlign=top;spacingLeft=4;spacingRight=4;overflow=hidden;rotatable=0;points=[[0,0.5],[1,0.5]];portConstraint=eastwest;" parent="sSPdWtcWhdDb-kHmD-bd-43" vertex="1">
          <mxGeometry y="78" width="140" height="26" as="geometry" />
        </mxCell>
        <mxCell id="sSPdWtcWhdDb-kHmD-bd-47" value="Tratamiento" style="swimlane;fontStyle=0;childLayout=stackLayout;horizontal=1;startSize=26;fillColor=none;horizontalStack=0;resizeParent=1;resizeParentMax=0;resizeLast=0;collapsible=1;marginBottom=0;" parent="1" vertex="1">
          <mxGeometry x="1480" y="80" width="140" height="130" as="geometry" />
        </mxCell>
        <mxCell id="sSPdWtcWhdDb-kHmD-bd-49" value="Medicina" style="text;strokeColor=none;fillColor=none;align=left;verticalAlign=top;spacingLeft=4;spacingRight=4;overflow=hidden;rotatable=0;points=[[0,0.5],[1,0.5]];portConstraint=eastwest;" parent="sSPdWtcWhdDb-kHmD-bd-47" vertex="1">
          <mxGeometry y="26" width="140" height="26" as="geometry" />
        </mxCell>
        <mxCell id="sSPdWtcWhdDb-kHmD-bd-50" value="Dosis" style="text;strokeColor=none;fillColor=none;align=left;verticalAlign=top;spacingLeft=4;spacingRight=4;overflow=hidden;rotatable=0;points=[[0,0.5],[1,0.5]];portConstraint=eastwest;" parent="sSPdWtcWhdDb-kHmD-bd-47" vertex="1">
          <mxGeometry y="52" width="140" height="26" as="geometry" />
        </mxCell>
        <mxCell id="sSPdWtcWhdDb-kHmD-bd-51" value="Frecuencia" style="text;strokeColor=none;fillColor=none;align=left;verticalAlign=top;spacingLeft=4;spacingRight=4;overflow=hidden;rotatable=0;points=[[0,0.5],[1,0.5]];portConstraint=eastwest;" parent="sSPdWtcWhdDb-kHmD-bd-47" vertex="1">
          <mxGeometry y="78" width="140" height="26" as="geometry" />
        </mxCell>
        <mxCell id="sSPdWtcWhdDb-kHmD-bd-52" value="Tiempo" style="text;strokeColor=none;fillColor=none;align=left;verticalAlign=top;spacingLeft=4;spacingRight=4;overflow=hidden;rotatable=0;points=[[0,0.5],[1,0.5]];portConstraint=eastwest;" parent="sSPdWtcWhdDb-kHmD-bd-47" vertex="1">
          <mxGeometry y="104" width="140" height="26" as="geometry" />
        </mxCell>
        <mxCell id="sSPdWtcWhdDb-kHmD-bd-56" value="Doctor" style="swimlane;fontStyle=0;childLayout=stackLayout;horizontal=1;startSize=26;fillColor=none;horizontalStack=0;resizeParent=1;resizeParentMax=0;resizeLast=0;collapsible=1;marginBottom=0;" parent="1" vertex="1">
          <mxGeometry x="744" y="26" width="140" height="104" as="geometry" />
        </mxCell>
        <mxCell id="sSPdWtcWhdDb-kHmD-bd-57" value="+ field: type" style="text;strokeColor=none;fillColor=none;align=left;verticalAlign=top;spacingLeft=4;spacingRight=4;overflow=hidden;rotatable=0;points=[[0,0.5],[1,0.5]];portConstraint=eastwest;" parent="sSPdWtcWhdDb-kHmD-bd-56" vertex="1">
          <mxGeometry y="26" width="140" height="26" as="geometry" />
        </mxCell>
        <mxCell id="sSPdWtcWhdDb-kHmD-bd-58" value="+ field: type" style="text;strokeColor=none;fillColor=none;align=left;verticalAlign=top;spacingLeft=4;spacingRight=4;overflow=hidden;rotatable=0;points=[[0,0.5],[1,0.5]];portConstraint=eastwest;" parent="sSPdWtcWhdDb-kHmD-bd-56" vertex="1">
          <mxGeometry y="52" width="140" height="26" as="geometry" />
        </mxCell>
        <mxCell id="sSPdWtcWhdDb-kHmD-bd-59" value="+ field: type" style="text;strokeColor=none;fillColor=none;align=left;verticalAlign=top;spacingLeft=4;spacingRight=4;overflow=hidden;rotatable=0;points=[[0,0.5],[1,0.5]];portConstraint=eastwest;" parent="sSPdWtcWhdDb-kHmD-bd-56" vertex="1">
          <mxGeometry y="78" width="140" height="26" as="geometry" />
        </mxCell>
        <mxCell id="sSPdWtcWhdDb-kHmD-bd-60" value="RepositorioDoctor" style="shape=umlLifeline;perimeter=lifelinePerimeter;whiteSpace=wrap;html=1;container=1;collapsible=0;recursiveResize=0;outlineConnect=0;" parent="1" vertex="1">
          <mxGeometry x="720" y="435" width="100" height="300" as="geometry" />
        </mxCell>
        <mxCell id="sSPdWtcWhdDb-kHmD-bd-64" value="" style="html=1;points=[];perimeter=orthogonalPerimeter;" parent="sSPdWtcWhdDb-kHmD-bd-60" vertex="1">
          <mxGeometry x="45" y="70" width="10" height="20" as="geometry" />
        </mxCell>
        <mxCell id="sSPdWtcWhdDb-kHmD-bd-61" value="RepositorioPatient" style="shape=umlLifeline;perimeter=lifelinePerimeter;whiteSpace=wrap;html=1;container=1;collapsible=0;recursiveResize=0;outlineConnect=0;" parent="1" vertex="1">
          <mxGeometry x="870" y="435" width="100" height="300" as="geometry" />
        </mxCell>
        <mxCell id="sSPdWtcWhdDb-kHmD-bd-70" value="" style="html=1;points=[];perimeter=orthogonalPerimeter;" parent="sSPdWtcWhdDb-kHmD-bd-61" vertex="1">
          <mxGeometry x="45" y="105" width="10" height="25" as="geometry" />
        </mxCell>
        <mxCell id="sSPdWtcWhdDb-kHmD-bd-63" value="getDoctores" style="html=1;verticalAlign=bottom;startArrow=oval;endArrow=block;startSize=8;rounded=0;" parent="1" source="sSPdWtcWhdDb-kHmD-bd-31" target="sSPdWtcWhdDb-kHmD-bd-62" edge="1">
          <mxGeometry relative="1" as="geometry">
            <mxPoint x="520" y="500" as="sourcePoint" />
          </mxGeometry>
        </mxCell>
        <mxCell id="sSPdWtcWhdDb-kHmD-bd-65" value="getAll" style="html=1;verticalAlign=bottom;startArrow=oval;endArrow=block;startSize=8;rounded=0;" parent="1" source="sSPdWtcWhdDb-kHmD-bd-62" target="sSPdWtcWhdDb-kHmD-bd-64" edge="1">
          <mxGeometry relative="1" as="geometry">
            <mxPoint x="705" y="505" as="sourcePoint" />
          </mxGeometry>
        </mxCell>
        <mxCell id="sSPdWtcWhdDb-kHmD-bd-67" value="getPatients" style="html=1;verticalAlign=bottom;startArrow=oval;endArrow=block;startSize=8;rounded=0;" parent="1" source="sSPdWtcWhdDb-kHmD-bd-33" target="sSPdWtcWhdDb-kHmD-bd-66" edge="1">
          <mxGeometry relative="1" as="geometry">
            <mxPoint x="520" y="545" as="sourcePoint" />
          </mxGeometry>
        </mxCell>
        <mxCell id="sSPdWtcWhdDb-kHmD-bd-71" value="getAll" style="html=1;verticalAlign=bottom;startArrow=oval;endArrow=block;startSize=8;rounded=0;" parent="1" source="sSPdWtcWhdDb-kHmD-bd-66" target="sSPdWtcWhdDb-kHmD-bd-70" edge="1">
          <mxGeometry relative="1" as="geometry">
            <mxPoint x="855" y="540" as="sourcePoint" />
          </mxGeometry>
        </mxCell>
        <mxCell id="sSPdWtcWhdDb-kHmD-bd-77" value="saveAppointment" style="html=1;verticalAlign=bottom;startArrow=oval;endArrow=block;startSize=8;rounded=0;exitX=1;exitY=0.25;exitDx=0;exitDy=0;exitPerimeter=0;" parent="1" source="sSPdWtcWhdDb-kHmD-bd-74" target="sSPdWtcWhdDb-kHmD-bd-76" edge="1">
          <mxGeometry relative="1" as="geometry">
            <mxPoint x="354" y="650" as="sourcePoint" />
          </mxGeometry>
        </mxCell>
        <mxCell id="sSPdWtcWhdDb-kHmD-bd-79" value="createAppointment" style="html=1;verticalAlign=bottom;startArrow=oval;endArrow=block;startSize=8;rounded=0;" parent="1" source="sSPdWtcWhdDb-kHmD-bd-76" target="sSPdWtcWhdDb-kHmD-bd-78" edge="1">
          <mxGeometry relative="1" as="geometry">
            <mxPoint x="520" y="670" as="sourcePoint" />
          </mxGeometry>
        </mxCell>
        <mxCell id="sSPdWtcWhdDb-kHmD-bd-80" value="RepositorioAppointment" style="shape=umlLifeline;perimeter=lifelinePerimeter;whiteSpace=wrap;html=1;container=1;collapsible=0;recursiveResize=0;outlineConnect=0;" parent="1" vertex="1">
          <mxGeometry x="1030" y="440" width="140" height="330" as="geometry" />
        </mxCell>
        <mxCell id="sSPdWtcWhdDb-kHmD-bd-81" value="" style="html=1;points=[];perimeter=orthogonalPerimeter;" parent="sSPdWtcWhdDb-kHmD-bd-80" vertex="1">
          <mxGeometry x="65" y="250" width="10" height="80" as="geometry" />
        </mxCell>
        <mxCell id="sSPdWtcWhdDb-kHmD-bd-82" value="persit" style="html=1;verticalAlign=bottom;startArrow=oval;endArrow=block;startSize=8;rounded=0;" parent="1" source="sSPdWtcWhdDb-kHmD-bd-78" target="sSPdWtcWhdDb-kHmD-bd-81" edge="1">
          <mxGeometry relative="1" as="geometry">
            <mxPoint x="1035" y="690" as="sourcePoint" />
          </mxGeometry>
        </mxCell>
        <mxCell id="-tmU0XoAu9uW2zujl_kn-1" value="TipodeCita" style="swimlane;fontStyle=0;childLayout=stackLayout;horizontal=1;startSize=26;fillColor=none;horizontalStack=0;resizeParent=1;resizeParentMax=0;resizeLast=0;collapsible=1;marginBottom=0;" parent="1" vertex="1">
          <mxGeometry x="1320" y="553" width="140" height="104" as="geometry" />
        </mxCell>
        <mxCell id="-tmU0XoAu9uW2zujl_kn-2" value="Medica" style="text;strokeColor=none;fillColor=none;align=left;verticalAlign=top;spacingLeft=4;spacingRight=4;overflow=hidden;rotatable=0;points=[[0,0.5],[1,0.5]];portConstraint=eastwest;" parent="-tmU0XoAu9uW2zujl_kn-1" vertex="1">
          <mxGeometry y="26" width="140" height="26" as="geometry" />
        </mxCell>
        <mxCell id="-tmU0XoAu9uW2zujl_kn-3" value="Terapias" style="text;strokeColor=none;fillColor=none;align=left;verticalAlign=top;spacingLeft=4;spacingRight=4;overflow=hidden;rotatable=0;points=[[0,0.5],[1,0.5]];portConstraint=eastwest;" parent="-tmU0XoAu9uW2zujl_kn-1" vertex="1">
          <mxGeometry y="52" width="140" height="26" as="geometry" />
        </mxCell>
        <mxCell id="-tmU0XoAu9uW2zujl_kn-4" value="Educativa" style="text;strokeColor=none;fillColor=none;align=left;verticalAlign=top;spacingLeft=4;spacingRight=4;overflow=hidden;rotatable=0;points=[[0,0.5],[1,0.5]];portConstraint=eastwest;" parent="-tmU0XoAu9uW2zujl_kn-1" vertex="1">
          <mxGeometry y="78" width="140" height="26" as="geometry" />
        </mxCell>
        <mxCell id="-tmU0XoAu9uW2zujl_kn-5" value="Appointment" style="swimlane;fontStyle=0;childLayout=stackLayout;horizontal=1;startSize=26;fillColor=none;horizontalStack=0;resizeParent=1;resizeParentMax=0;resizeLast=0;collapsible=1;marginBottom=0;" parent="1" vertex="1">
          <mxGeometry x="474" y="880" width="140" height="208" as="geometry" />
        </mxCell>
        <mxCell id="-tmU0XoAu9uW2zujl_kn-6" value="TipodeCita" style="text;strokeColor=none;fillColor=none;align=left;verticalAlign=top;spacingLeft=4;spacingRight=4;overflow=hidden;rotatable=0;points=[[0,0.5],[1,0.5]];portConstraint=eastwest;" parent="-tmU0XoAu9uW2zujl_kn-5" vertex="1">
          <mxGeometry y="26" width="140" height="26" as="geometry" />
        </mxCell>
        <mxCell id="-tmU0XoAu9uW2zujl_kn-8" value="teacher" style="text;strokeColor=none;fillColor=none;align=left;verticalAlign=top;spacingLeft=4;spacingRight=4;overflow=hidden;rotatable=0;points=[[0,0.5],[1,0.5]];portConstraint=eastwest;" parent="-tmU0XoAu9uW2zujl_kn-5" vertex="1">
          <mxGeometry y="52" width="140" height="26" as="geometry" />
        </mxCell>
        <mxCell id="-tmU0XoAu9uW2zujl_kn-9" value="therapist" style="text;strokeColor=none;fillColor=none;align=left;verticalAlign=top;spacingLeft=4;spacingRight=4;overflow=hidden;rotatable=0;points=[[0,0.5],[1,0.5]];portConstraint=eastwest;" parent="-tmU0XoAu9uW2zujl_kn-5" vertex="1">
          <mxGeometry y="78" width="140" height="26" as="geometry" />
        </mxCell>
        <mxCell id="-tmU0XoAu9uW2zujl_kn-10" value="title" style="text;strokeColor=none;fillColor=none;align=left;verticalAlign=top;spacingLeft=4;spacingRight=4;overflow=hidden;rotatable=0;points=[[0,0.5],[1,0.5]];portConstraint=eastwest;" parent="-tmU0XoAu9uW2zujl_kn-5" vertex="1">
          <mxGeometry y="104" width="140" height="26" as="geometry" />
        </mxCell>
        <mxCell id="-tmU0XoAu9uW2zujl_kn-11" value="dateRange" style="text;strokeColor=none;fillColor=none;align=left;verticalAlign=top;spacingLeft=4;spacingRight=4;overflow=hidden;rotatable=0;points=[[0,0.5],[1,0.5]];portConstraint=eastwest;" parent="-tmU0XoAu9uW2zujl_kn-5" vertex="1">
          <mxGeometry y="130" width="140" height="26" as="geometry" />
        </mxCell>
        <mxCell id="-tmU0XoAu9uW2zujl_kn-13" value="isConflict" style="text;strokeColor=none;fillColor=none;align=left;verticalAlign=top;spacingLeft=4;spacingRight=4;overflow=hidden;rotatable=0;points=[[0,0.5],[1,0.5]];portConstraint=eastwest;" parent="-tmU0XoAu9uW2zujl_kn-5" vertex="1">
          <mxGeometry y="156" width="140" height="26" as="geometry" />
        </mxCell>
        <mxCell id="-tmU0XoAu9uW2zujl_kn-14" value="indScheduleGoogle" style="text;strokeColor=none;fillColor=none;align=left;verticalAlign=top;spacingLeft=4;spacingRight=4;overflow=hidden;rotatable=0;points=[[0,0.5],[1,0.5]];portConstraint=eastwest;" parent="-tmU0XoAu9uW2zujl_kn-5" vertex="1">
          <mxGeometry y="182" width="140" height="26" as="geometry" />
        </mxCell>
        <mxCell id="-tmU0XoAu9uW2zujl_kn-15" value="SchedulePatient" style="swimlane;fontStyle=0;childLayout=stackLayout;horizontal=1;startSize=26;fillColor=none;horizontalStack=0;resizeParent=1;resizeParentMax=0;resizeLast=0;collapsible=1;marginBottom=0;" parent="1" vertex="1">
          <mxGeometry x="200" y="910" width="140" height="104" as="geometry" />
        </mxCell>
        <mxCell id="-tmU0XoAu9uW2zujl_kn-16" value="patient" style="text;strokeColor=none;fillColor=none;align=left;verticalAlign=top;spacingLeft=4;spacingRight=4;overflow=hidden;rotatable=0;points=[[0,0.5],[1,0.5]];portConstraint=eastwest;" parent="-tmU0XoAu9uW2zujl_kn-15" vertex="1">
          <mxGeometry y="26" width="140" height="26" as="geometry" />
        </mxCell>
        <mxCell id="-tmU0XoAu9uW2zujl_kn-17" value="+ field: type" style="text;strokeColor=none;fillColor=none;align=left;verticalAlign=top;spacingLeft=4;spacingRight=4;overflow=hidden;rotatable=0;points=[[0,0.5],[1,0.5]];portConstraint=eastwest;" parent="-tmU0XoAu9uW2zujl_kn-15" vertex="1">
          <mxGeometry y="52" width="140" height="26" as="geometry" />
        </mxCell>
        <mxCell id="-tmU0XoAu9uW2zujl_kn-18" value="+ field: type" style="text;strokeColor=none;fillColor=none;align=left;verticalAlign=top;spacingLeft=4;spacingRight=4;overflow=hidden;rotatable=0;points=[[0,0.5],[1,0.5]];portConstraint=eastwest;" parent="-tmU0XoAu9uW2zujl_kn-15" vertex="1">
          <mxGeometry y="78" width="140" height="26" as="geometry" />
        </mxCell>
        <mxCell id="-tmU0XoAu9uW2zujl_kn-19" value="ScheduleMedicalPatient" style="swimlane;fontStyle=0;childLayout=stackLayout;horizontal=1;startSize=26;fillColor=none;horizontalStack=0;resizeParent=1;resizeParentMax=0;resizeLast=0;collapsible=1;marginBottom=0;" parent="1" vertex="1">
          <mxGeometry x="800" y="198" width="140" height="104" as="geometry" />
        </mxCell>
        <mxCell id="-tmU0XoAu9uW2zujl_kn-20" value="patient" style="text;strokeColor=none;fillColor=none;align=left;verticalAlign=top;spacingLeft=4;spacingRight=4;overflow=hidden;rotatable=0;points=[[0,0.5],[1,0.5]];portConstraint=eastwest;" parent="-tmU0XoAu9uW2zujl_kn-19" vertex="1">
          <mxGeometry y="26" width="140" height="26" as="geometry" />
        </mxCell>
        <mxCell id="-tmU0XoAu9uW2zujl_kn-21" value="+ field: type" style="text;strokeColor=none;fillColor=none;align=left;verticalAlign=top;spacingLeft=4;spacingRight=4;overflow=hidden;rotatable=0;points=[[0,0.5],[1,0.5]];portConstraint=eastwest;" parent="-tmU0XoAu9uW2zujl_kn-19" vertex="1">
          <mxGeometry y="52" width="140" height="26" as="geometry" />
        </mxCell>
        <mxCell id="-tmU0XoAu9uW2zujl_kn-22" value="+ field: type" style="text;strokeColor=none;fillColor=none;align=left;verticalAlign=top;spacingLeft=4;spacingRight=4;overflow=hidden;rotatable=0;points=[[0,0.5],[1,0.5]];portConstraint=eastwest;" parent="-tmU0XoAu9uW2zujl_kn-19" vertex="1">
          <mxGeometry y="78" width="140" height="26" as="geometry" />
        </mxCell>
        <mxCell id="-tmU0XoAu9uW2zujl_kn-24" style="edgeStyle=orthogonalEdgeStyle;rounded=0;orthogonalLoop=1;jettySize=auto;html=1;entryX=0;entryY=0.5;entryDx=0;entryDy=0;" parent="1" source="-tmU0XoAu9uW2zujl_kn-16" target="-tmU0XoAu9uW2zujl_kn-6" edge="1">
          <mxGeometry relative="1" as="geometry" />
        </mxCell>
        <mxCell id="-tmU0XoAu9uW2zujl_kn-25" style="edgeStyle=orthogonalEdgeStyle;rounded=0;orthogonalLoop=1;jettySize=auto;html=1;entryX=0;entryY=0.5;entryDx=0;entryDy=0;" parent="1" source="-tmU0XoAu9uW2zujl_kn-20" target="sSPdWtcWhdDb-kHmD-bd-42" edge="1">
          <mxGeometry relative="1" as="geometry" />
        </mxCell>
        <mxCell id="-tmU0XoAu9uW2zujl_kn-26" style="edgeStyle=orthogonalEdgeStyle;rounded=0;orthogonalLoop=1;jettySize=auto;html=1;entryX=0;entryY=0.5;entryDx=0;entryDy=0;" parent="1" source="sSPdWtcWhdDb-kHmD-bd-37" target="sSPdWtcWhdDb-kHmD-bd-50" edge="1">
          <mxGeometry relative="1" as="geometry" />
        </mxCell>
        <mxCell id="-tmU0XoAu9uW2zujl_kn-27" value="MedicalHistory" style="swimlane;fontStyle=0;childLayout=stackLayout;horizontal=1;startSize=26;fillColor=none;horizontalStack=0;resizeParent=1;resizeParentMax=0;resizeLast=0;collapsible=1;marginBottom=0;" parent="1" vertex="1">
          <mxGeometry x="1020" y="12" width="140" height="104" as="geometry" />
        </mxCell>
        <mxCell id="-tmU0XoAu9uW2zujl_kn-28" value="patient" style="text;strokeColor=none;fillColor=none;align=left;verticalAlign=top;spacingLeft=4;spacingRight=4;overflow=hidden;rotatable=0;points=[[0,0.5],[1,0.5]];portConstraint=eastwest;" parent="-tmU0XoAu9uW2zujl_kn-27" vertex="1">
          <mxGeometry y="26" width="140" height="26" as="geometry" />
        </mxCell>
        <mxCell id="-tmU0XoAu9uW2zujl_kn-29" value="+ field: type" style="text;strokeColor=none;fillColor=none;align=left;verticalAlign=top;spacingLeft=4;spacingRight=4;overflow=hidden;rotatable=0;points=[[0,0.5],[1,0.5]];portConstraint=eastwest;" parent="-tmU0XoAu9uW2zujl_kn-27" vertex="1">
          <mxGeometry y="52" width="140" height="26" as="geometry" />
        </mxCell>
        <mxCell id="-tmU0XoAu9uW2zujl_kn-30" value="+ field: type" style="text;strokeColor=none;fillColor=none;align=left;verticalAlign=top;spacingLeft=4;spacingRight=4;overflow=hidden;rotatable=0;points=[[0,0.5],[1,0.5]];portConstraint=eastwest;" parent="-tmU0XoAu9uW2zujl_kn-27" vertex="1">
          <mxGeometry y="78" width="140" height="26" as="geometry" />
        </mxCell>
        <mxCell id="-tmU0XoAu9uW2zujl_kn-31" style="edgeStyle=orthogonalEdgeStyle;rounded=0;orthogonalLoop=1;jettySize=auto;html=1;entryX=-0.025;entryY=0.115;entryDx=0;entryDy=0;entryPerimeter=0;" parent="1" source="-tmU0XoAu9uW2zujl_kn-29" target="sSPdWtcWhdDb-kHmD-bd-37" edge="1">
          <mxGeometry relative="1" as="geometry" />
        </mxCell>
        <mxCell id="Eb41rm3-mO_iX7q0-oNB-1" value="Diagnosis" style="swimlane;fontStyle=0;childLayout=stackLayout;horizontal=1;startSize=26;fillColor=none;horizontalStack=0;resizeParent=1;resizeParentMax=0;resizeLast=0;collapsible=1;marginBottom=0;" vertex="1" parent="1">
          <mxGeometry x="474" y="1150" width="140" height="130" as="geometry" />
        </mxCell>
        <mxCell id="Eb41rm3-mO_iX7q0-oNB-2" value="Registereddate" style="text;strokeColor=none;fillColor=none;align=left;verticalAlign=top;spacingLeft=4;spacingRight=4;overflow=hidden;rotatable=0;points=[[0,0.5],[1,0.5]];portConstraint=eastwest;" vertex="1" parent="Eb41rm3-mO_iX7q0-oNB-1">
          <mxGeometry y="26" width="140" height="26" as="geometry" />
        </mxCell>
        <mxCell id="Eb41rm3-mO_iX7q0-oNB-3" value="appointmetId" style="text;strokeColor=none;fillColor=none;align=left;verticalAlign=top;spacingLeft=4;spacingRight=4;overflow=hidden;rotatable=0;points=[[0,0.5],[1,0.5]];portConstraint=eastwest;" vertex="1" parent="Eb41rm3-mO_iX7q0-oNB-1">
          <mxGeometry y="52" width="140" height="26" as="geometry" />
        </mxCell>
        <mxCell id="Eb41rm3-mO_iX7q0-oNB-4" value="diagnostico&#xa;" style="text;strokeColor=none;fillColor=none;align=left;verticalAlign=top;spacingLeft=4;spacingRight=4;overflow=hidden;rotatable=0;points=[[0,0.5],[1,0.5]];portConstraint=eastwest;" vertex="1" parent="Eb41rm3-mO_iX7q0-oNB-1">
          <mxGeometry y="78" width="140" height="26" as="geometry" />
        </mxCell>
        <mxCell id="Eb41rm3-mO_iX7q0-oNB-5" value="doctorId" style="text;strokeColor=none;fillColor=none;align=left;verticalAlign=top;spacingLeft=4;spacingRight=4;overflow=hidden;rotatable=0;points=[[0,0.5],[1,0.5]];portConstraint=eastwest;" vertex="1" parent="Eb41rm3-mO_iX7q0-oNB-1">
          <mxGeometry y="104" width="140" height="26" as="geometry" />
        </mxCell>
        <mxCell id="Eb41rm3-mO_iX7q0-oNB-6" value="Prescription" style="swimlane;fontStyle=0;childLayout=stackLayout;horizontal=1;startSize=26;fillColor=none;horizontalStack=0;resizeParent=1;resizeParentMax=0;resizeLast=0;collapsible=1;marginBottom=0;" vertex="1" parent="1">
          <mxGeometry x="713.5" y="1188" width="140" height="130" as="geometry" />
        </mxCell>
        <mxCell id="Eb41rm3-mO_iX7q0-oNB-7" value="Medicina" style="text;strokeColor=none;fillColor=none;align=left;verticalAlign=top;spacingLeft=4;spacingRight=4;overflow=hidden;rotatable=0;points=[[0,0.5],[1,0.5]];portConstraint=eastwest;" vertex="1" parent="Eb41rm3-mO_iX7q0-oNB-6">
          <mxGeometry y="26" width="140" height="26" as="geometry" />
        </mxCell>
        <mxCell id="Eb41rm3-mO_iX7q0-oNB-8" value="Dosis" style="text;strokeColor=none;fillColor=none;align=left;verticalAlign=top;spacingLeft=4;spacingRight=4;overflow=hidden;rotatable=0;points=[[0,0.5],[1,0.5]];portConstraint=eastwest;" vertex="1" parent="Eb41rm3-mO_iX7q0-oNB-6">
          <mxGeometry y="52" width="140" height="26" as="geometry" />
        </mxCell>
        <mxCell id="Eb41rm3-mO_iX7q0-oNB-9" value="Frecuencia" style="text;strokeColor=none;fillColor=none;align=left;verticalAlign=top;spacingLeft=4;spacingRight=4;overflow=hidden;rotatable=0;points=[[0,0.5],[1,0.5]];portConstraint=eastwest;" vertex="1" parent="Eb41rm3-mO_iX7q0-oNB-6">
          <mxGeometry y="78" width="140" height="26" as="geometry" />
        </mxCell>
        <mxCell id="Eb41rm3-mO_iX7q0-oNB-10" value="Tiempo" style="text;strokeColor=none;fillColor=none;align=left;verticalAlign=top;spacingLeft=4;spacingRight=4;overflow=hidden;rotatable=0;points=[[0,0.5],[1,0.5]];portConstraint=eastwest;" vertex="1" parent="Eb41rm3-mO_iX7q0-oNB-6">
          <mxGeometry y="104" width="140" height="26" as="geometry" />
        </mxCell>
        <mxCell id="Eb41rm3-mO_iX7q0-oNB-11" style="edgeStyle=orthogonalEdgeStyle;rounded=0;orthogonalLoop=1;jettySize=auto;html=1;entryX=0;entryY=0.5;entryDx=0;entryDy=0;" edge="1" parent="1" source="Eb41rm3-mO_iX7q0-oNB-3" target="Eb41rm3-mO_iX7q0-oNB-8">
          <mxGeometry relative="1" as="geometry" />
        </mxCell>
        <mxCell id="Eb41rm3-mO_iX7q0-oNB-13" value="PatientHistory" style="swimlane;fontStyle=0;childLayout=stackLayout;horizontal=1;startSize=26;fillColor=none;horizontalStack=0;resizeParent=1;resizeParentMax=0;resizeLast=0;collapsible=1;marginBottom=0;" vertex="1" parent="1">
          <mxGeometry x="240" y="1163" width="140" height="104" as="geometry" />
        </mxCell>
        <mxCell id="Eb41rm3-mO_iX7q0-oNB-14" value="patient" style="text;strokeColor=none;fillColor=none;align=left;verticalAlign=top;spacingLeft=4;spacingRight=4;overflow=hidden;rotatable=0;points=[[0,0.5],[1,0.5]];portConstraint=eastwest;" vertex="1" parent="Eb41rm3-mO_iX7q0-oNB-13">
          <mxGeometry y="26" width="140" height="26" as="geometry" />
        </mxCell>
        <mxCell id="Eb41rm3-mO_iX7q0-oNB-15" value="+ field: type" style="text;strokeColor=none;fillColor=none;align=left;verticalAlign=top;spacingLeft=4;spacingRight=4;overflow=hidden;rotatable=0;points=[[0,0.5],[1,0.5]];portConstraint=eastwest;" vertex="1" parent="Eb41rm3-mO_iX7q0-oNB-13">
          <mxGeometry y="52" width="140" height="26" as="geometry" />
        </mxCell>
        <mxCell id="Eb41rm3-mO_iX7q0-oNB-16" value="+ field: type" style="text;strokeColor=none;fillColor=none;align=left;verticalAlign=top;spacingLeft=4;spacingRight=4;overflow=hidden;rotatable=0;points=[[0,0.5],[1,0.5]];portConstraint=eastwest;" vertex="1" parent="Eb41rm3-mO_iX7q0-oNB-13">
          <mxGeometry y="78" width="140" height="26" as="geometry" />
        </mxCell>
        <mxCell id="Eb41rm3-mO_iX7q0-oNB-17" style="edgeStyle=orthogonalEdgeStyle;rounded=0;orthogonalLoop=1;jettySize=auto;html=1;entryX=0;entryY=0.808;entryDx=0;entryDy=0;entryPerimeter=0;" edge="1" parent="1" source="Eb41rm3-mO_iX7q0-oNB-13" target="Eb41rm3-mO_iX7q0-oNB-2">
          <mxGeometry relative="1" as="geometry" />
        </mxCell>
        <mxCell id="Eb41rm3-mO_iX7q0-oNB-18" value="" style="rounded=0;whiteSpace=wrap;html=1;" vertex="1" parent="1">
          <mxGeometry x="1150" y="932" width="480" height="278" as="geometry" />
        </mxCell>
        <mxCell id="Eb41rm3-mO_iX7q0-oNB-19" value="Selecione Paciente" style="rounded=1;whiteSpace=wrap;html=1;" vertex="1" parent="1">
          <mxGeometry x="1205.5" y="959" width="210" height="50" as="geometry" />
        </mxCell>
        <mxCell id="Eb41rm3-mO_iX7q0-oNB-20" value="Assets" style="childLayout=tableLayout;recursiveResize=0;strokeColor=#98bf21;fillColor=#A7C942;shadow=1;" vertex="1" parent="1">
          <mxGeometry x="1230" y="1045" width="270" height="105" as="geometry" />
        </mxCell>
        <mxCell id="Eb41rm3-mO_iX7q0-oNB-21" style="shape=tableRow;horizontal=0;startSize=0;swimlaneHead=0;swimlaneBody=0;top=0;left=0;bottom=0;right=0;dropTarget=0;collapsible=0;recursiveResize=0;expand=0;fontStyle=0;strokeColor=inherit;fillColor=#ffffff;" vertex="1" parent="Eb41rm3-mO_iX7q0-oNB-20">
          <mxGeometry width="270" height="22" as="geometry" />
        </mxCell>
        <mxCell id="Eb41rm3-mO_iX7q0-oNB-22" value="Title 1" style="connectable=0;recursiveResize=0;strokeColor=inherit;fillColor=#A7C942;align=center;fontStyle=1;fontColor=#FFFFFF;html=1;" vertex="1" parent="Eb41rm3-mO_iX7q0-oNB-21">
          <mxGeometry width="90" height="22" as="geometry">
            <mxRectangle width="90" height="22" as="alternateBounds" />
          </mxGeometry>
        </mxCell>
        <mxCell id="Eb41rm3-mO_iX7q0-oNB-23" value="Title 2" style="connectable=0;recursiveResize=0;strokeColor=inherit;fillColor=#A7C942;align=center;fontStyle=1;fontColor=#FFFFFF;html=1;" vertex="1" parent="Eb41rm3-mO_iX7q0-oNB-21">
          <mxGeometry x="90" width="90" height="22" as="geometry">
            <mxRectangle width="90" height="22" as="alternateBounds" />
          </mxGeometry>
        </mxCell>
        <mxCell id="Eb41rm3-mO_iX7q0-oNB-24" value="Title 3" style="connectable=0;recursiveResize=0;strokeColor=inherit;fillColor=#A7C942;align=center;fontStyle=1;fontColor=#FFFFFF;html=1;" vertex="1" parent="Eb41rm3-mO_iX7q0-oNB-21">
          <mxGeometry x="180" width="90" height="22" as="geometry">
            <mxRectangle width="90" height="22" as="alternateBounds" />
          </mxGeometry>
        </mxCell>
        <mxCell id="Eb41rm3-mO_iX7q0-oNB-25" value="" style="shape=tableRow;horizontal=0;startSize=0;swimlaneHead=0;swimlaneBody=0;top=0;left=0;bottom=0;right=0;dropTarget=0;collapsible=0;recursiveResize=0;expand=0;fontStyle=0;strokeColor=inherit;fillColor=#ffffff;" vertex="1" parent="Eb41rm3-mO_iX7q0-oNB-20">
          <mxGeometry y="22" width="270" height="21" as="geometry" />
        </mxCell>
        <mxCell id="Eb41rm3-mO_iX7q0-oNB-26" value="Value 1" style="connectable=0;recursiveResize=0;strokeColor=inherit;fillColor=inherit;align=center;whiteSpace=wrap;html=1;" vertex="1" parent="Eb41rm3-mO_iX7q0-oNB-25">
          <mxGeometry width="90" height="21" as="geometry">
            <mxRectangle width="90" height="21" as="alternateBounds" />
          </mxGeometry>
        </mxCell>
        <mxCell id="Eb41rm3-mO_iX7q0-oNB-27" value="Value 2" style="connectable=0;recursiveResize=0;strokeColor=inherit;fillColor=inherit;align=center;whiteSpace=wrap;html=1;" vertex="1" parent="Eb41rm3-mO_iX7q0-oNB-25">
          <mxGeometry x="90" width="90" height="21" as="geometry">
            <mxRectangle width="90" height="21" as="alternateBounds" />
          </mxGeometry>
        </mxCell>
        <mxCell id="Eb41rm3-mO_iX7q0-oNB-28" value="Value 3" style="connectable=0;recursiveResize=0;strokeColor=inherit;fillColor=inherit;align=center;whiteSpace=wrap;html=1;" vertex="1" parent="Eb41rm3-mO_iX7q0-oNB-25">
          <mxGeometry x="180" width="90" height="21" as="geometry">
            <mxRectangle width="90" height="21" as="alternateBounds" />
          </mxGeometry>
        </mxCell>
        <mxCell id="Eb41rm3-mO_iX7q0-oNB-29" value="" style="shape=tableRow;horizontal=0;startSize=0;swimlaneHead=0;swimlaneBody=0;top=0;left=0;bottom=0;right=0;dropTarget=0;collapsible=0;recursiveResize=0;expand=0;fontStyle=1;strokeColor=inherit;fillColor=#EAF2D3;" vertex="1" parent="Eb41rm3-mO_iX7q0-oNB-20">
          <mxGeometry y="43" width="270" height="20" as="geometry" />
        </mxCell>
        <mxCell id="Eb41rm3-mO_iX7q0-oNB-30" value="Value 4" style="connectable=0;recursiveResize=0;strokeColor=inherit;fillColor=inherit;whiteSpace=wrap;html=1;" vertex="1" parent="Eb41rm3-mO_iX7q0-oNB-29">
          <mxGeometry width="90" height="20" as="geometry">
            <mxRectangle width="90" height="20" as="alternateBounds" />
          </mxGeometry>
        </mxCell>
        <mxCell id="Eb41rm3-mO_iX7q0-oNB-31" value="Value 5" style="connectable=0;recursiveResize=0;strokeColor=inherit;fillColor=inherit;whiteSpace=wrap;html=1;" vertex="1" parent="Eb41rm3-mO_iX7q0-oNB-29">
          <mxGeometry x="90" width="90" height="20" as="geometry">
            <mxRectangle width="90" height="20" as="alternateBounds" />
          </mxGeometry>
        </mxCell>
        <mxCell id="Eb41rm3-mO_iX7q0-oNB-32" value="Value 6" style="connectable=0;recursiveResize=0;strokeColor=inherit;fillColor=inherit;whiteSpace=wrap;html=1;" vertex="1" parent="Eb41rm3-mO_iX7q0-oNB-29">
          <mxGeometry x="180" width="90" height="20" as="geometry">
            <mxRectangle width="90" height="20" as="alternateBounds" />
          </mxGeometry>
        </mxCell>
        <mxCell id="Eb41rm3-mO_iX7q0-oNB-33" value="" style="shape=tableRow;horizontal=0;startSize=0;swimlaneHead=0;swimlaneBody=0;top=0;left=0;bottom=0;right=0;dropTarget=0;collapsible=0;recursiveResize=0;expand=0;fontStyle=0;strokeColor=inherit;fillColor=#ffffff;" vertex="1" parent="Eb41rm3-mO_iX7q0-oNB-20">
          <mxGeometry y="63" width="270" height="22" as="geometry" />
        </mxCell>
        <mxCell id="Eb41rm3-mO_iX7q0-oNB-34" value="Value 7" style="connectable=0;recursiveResize=0;strokeColor=inherit;fillColor=inherit;fontStyle=0;align=center;whiteSpace=wrap;html=1;" vertex="1" parent="Eb41rm3-mO_iX7q0-oNB-33">
          <mxGeometry width="90" height="22" as="geometry">
            <mxRectangle width="90" height="22" as="alternateBounds" />
          </mxGeometry>
        </mxCell>
        <mxCell id="Eb41rm3-mO_iX7q0-oNB-35" value="Value 8" style="connectable=0;recursiveResize=0;strokeColor=inherit;fillColor=inherit;fontStyle=0;align=center;whiteSpace=wrap;html=1;" vertex="1" parent="Eb41rm3-mO_iX7q0-oNB-33">
          <mxGeometry x="90" width="90" height="22" as="geometry">
            <mxRectangle width="90" height="22" as="alternateBounds" />
          </mxGeometry>
        </mxCell>
        <mxCell id="Eb41rm3-mO_iX7q0-oNB-36" value="Value 9" style="connectable=0;recursiveResize=0;strokeColor=inherit;fillColor=inherit;fontStyle=0;align=center;whiteSpace=wrap;html=1;" vertex="1" parent="Eb41rm3-mO_iX7q0-oNB-33">
          <mxGeometry x="180" width="90" height="22" as="geometry">
            <mxRectangle width="90" height="22" as="alternateBounds" />
          </mxGeometry>
        </mxCell>
        <mxCell id="Eb41rm3-mO_iX7q0-oNB-37" value="" style="shape=tableRow;horizontal=0;startSize=0;swimlaneHead=0;swimlaneBody=0;top=0;left=0;bottom=0;right=0;dropTarget=0;collapsible=0;recursiveResize=0;expand=0;fontStyle=1;strokeColor=inherit;fillColor=#EAF2D3;" vertex="1" parent="Eb41rm3-mO_iX7q0-oNB-20">
          <mxGeometry y="85" width="270" height="20" as="geometry" />
        </mxCell>
        <mxCell id="Eb41rm3-mO_iX7q0-oNB-38" value="Value 10" style="connectable=0;recursiveResize=0;strokeColor=inherit;fillColor=inherit;whiteSpace=wrap;html=1;" vertex="1" parent="Eb41rm3-mO_iX7q0-oNB-37">
          <mxGeometry width="90" height="20" as="geometry">
            <mxRectangle width="90" height="20" as="alternateBounds" />
          </mxGeometry>
        </mxCell>
        <mxCell id="Eb41rm3-mO_iX7q0-oNB-39" value="Value 11" style="connectable=0;recursiveResize=0;strokeColor=inherit;fillColor=inherit;whiteSpace=wrap;html=1;" vertex="1" parent="Eb41rm3-mO_iX7q0-oNB-37">
          <mxGeometry x="90" width="90" height="20" as="geometry">
            <mxRectangle width="90" height="20" as="alternateBounds" />
          </mxGeometry>
        </mxCell>
        <mxCell id="Eb41rm3-mO_iX7q0-oNB-40" value="Value 12" style="connectable=0;recursiveResize=0;strokeColor=inherit;fillColor=inherit;whiteSpace=wrap;html=1;" vertex="1" parent="Eb41rm3-mO_iX7q0-oNB-37">
          <mxGeometry x="180" width="90" height="20" as="geometry">
            <mxRectangle width="90" height="20" as="alternateBounds" />
          </mxGeometry>
        </mxCell>
        <mxCell id="Eb41rm3-mO_iX7q0-oNB-41" value="" style="rounded=0;whiteSpace=wrap;html=1;" vertex="1" parent="1">
          <mxGeometry x="1220" y="1275" width="400" height="405" as="geometry" />
        </mxCell>
        <mxCell id="Eb41rm3-mO_iX7q0-oNB-42" value="Seleccione Paciente" style="rounded=1;whiteSpace=wrap;html=1;" vertex="1" parent="1">
          <mxGeometry x="1260" y="1290" width="170" height="30" as="geometry" />
        </mxCell>
        <mxCell id="Eb41rm3-mO_iX7q0-oNB-43" value="Seleccione Cita" style="rounded=1;whiteSpace=wrap;html=1;" vertex="1" parent="1">
          <mxGeometry x="1260" y="1340" width="170" height="30" as="geometry" />
        </mxCell>
        <mxCell id="Eb41rm3-mO_iX7q0-oNB-44" value="Diagnostico" style="rounded=1;whiteSpace=wrap;html=1;" vertex="1" parent="1">
          <mxGeometry x="1260" y="1400" width="170" height="30" as="geometry" />
        </mxCell>
        <mxCell id="Eb41rm3-mO_iX7q0-oNB-45" value="Fecha" style="rounded=1;whiteSpace=wrap;html=1;" vertex="1" parent="1">
          <mxGeometry x="1260" y="1440" width="170" height="30" as="geometry" />
        </mxCell>
        <mxCell id="Eb41rm3-mO_iX7q0-oNB-46" value="Assets" style="childLayout=tableLayout;recursiveResize=0;strokeColor=#98bf21;fillColor=#A7C942;shadow=1;" vertex="1" parent="1">
          <mxGeometry x="1255" y="1550" width="270" height="105" as="geometry" />
        </mxCell>
        <mxCell id="Eb41rm3-mO_iX7q0-oNB-47" style="shape=tableRow;horizontal=0;startSize=0;swimlaneHead=0;swimlaneBody=0;top=0;left=0;bottom=0;right=0;dropTarget=0;collapsible=0;recursiveResize=0;expand=0;fontStyle=0;strokeColor=inherit;fillColor=#ffffff;" vertex="1" parent="Eb41rm3-mO_iX7q0-oNB-46">
          <mxGeometry width="270" height="22" as="geometry" />
        </mxCell>
        <mxCell id="Eb41rm3-mO_iX7q0-oNB-48" value="Title 1" style="connectable=0;recursiveResize=0;strokeColor=inherit;fillColor=#A7C942;align=center;fontStyle=1;fontColor=#FFFFFF;html=1;" vertex="1" parent="Eb41rm3-mO_iX7q0-oNB-47">
          <mxGeometry width="90" height="22" as="geometry">
            <mxRectangle width="90" height="22" as="alternateBounds" />
          </mxGeometry>
        </mxCell>
        <mxCell id="Eb41rm3-mO_iX7q0-oNB-49" value="Title 2" style="connectable=0;recursiveResize=0;strokeColor=inherit;fillColor=#A7C942;align=center;fontStyle=1;fontColor=#FFFFFF;html=1;" vertex="1" parent="Eb41rm3-mO_iX7q0-oNB-47">
          <mxGeometry x="90" width="90" height="22" as="geometry">
            <mxRectangle width="90" height="22" as="alternateBounds" />
          </mxGeometry>
        </mxCell>
        <mxCell id="Eb41rm3-mO_iX7q0-oNB-50" value="Title 3" style="connectable=0;recursiveResize=0;strokeColor=inherit;fillColor=#A7C942;align=center;fontStyle=1;fontColor=#FFFFFF;html=1;" vertex="1" parent="Eb41rm3-mO_iX7q0-oNB-47">
          <mxGeometry x="180" width="90" height="22" as="geometry">
            <mxRectangle width="90" height="22" as="alternateBounds" />
          </mxGeometry>
        </mxCell>
        <mxCell id="Eb41rm3-mO_iX7q0-oNB-51" value="" style="shape=tableRow;horizontal=0;startSize=0;swimlaneHead=0;swimlaneBody=0;top=0;left=0;bottom=0;right=0;dropTarget=0;collapsible=0;recursiveResize=0;expand=0;fontStyle=0;strokeColor=inherit;fillColor=#ffffff;" vertex="1" parent="Eb41rm3-mO_iX7q0-oNB-46">
          <mxGeometry y="22" width="270" height="21" as="geometry" />
        </mxCell>
        <mxCell id="Eb41rm3-mO_iX7q0-oNB-52" value="Value 1" style="connectable=0;recursiveResize=0;strokeColor=inherit;fillColor=inherit;align=center;whiteSpace=wrap;html=1;" vertex="1" parent="Eb41rm3-mO_iX7q0-oNB-51">
          <mxGeometry width="90" height="21" as="geometry">
            <mxRectangle width="90" height="21" as="alternateBounds" />
          </mxGeometry>
        </mxCell>
        <mxCell id="Eb41rm3-mO_iX7q0-oNB-53" value="Value 2" style="connectable=0;recursiveResize=0;strokeColor=inherit;fillColor=inherit;align=center;whiteSpace=wrap;html=1;" vertex="1" parent="Eb41rm3-mO_iX7q0-oNB-51">
          <mxGeometry x="90" width="90" height="21" as="geometry">
            <mxRectangle width="90" height="21" as="alternateBounds" />
          </mxGeometry>
        </mxCell>
        <mxCell id="Eb41rm3-mO_iX7q0-oNB-54" value="Value 3" style="connectable=0;recursiveResize=0;strokeColor=inherit;fillColor=inherit;align=center;whiteSpace=wrap;html=1;" vertex="1" parent="Eb41rm3-mO_iX7q0-oNB-51">
          <mxGeometry x="180" width="90" height="21" as="geometry">
            <mxRectangle width="90" height="21" as="alternateBounds" />
          </mxGeometry>
        </mxCell>
        <mxCell id="Eb41rm3-mO_iX7q0-oNB-55" value="" style="shape=tableRow;horizontal=0;startSize=0;swimlaneHead=0;swimlaneBody=0;top=0;left=0;bottom=0;right=0;dropTarget=0;collapsible=0;recursiveResize=0;expand=0;fontStyle=1;strokeColor=inherit;fillColor=#EAF2D3;" vertex="1" parent="Eb41rm3-mO_iX7q0-oNB-46">
          <mxGeometry y="43" width="270" height="20" as="geometry" />
        </mxCell>
        <mxCell id="Eb41rm3-mO_iX7q0-oNB-56" value="Value 4" style="connectable=0;recursiveResize=0;strokeColor=inherit;fillColor=inherit;whiteSpace=wrap;html=1;" vertex="1" parent="Eb41rm3-mO_iX7q0-oNB-55">
          <mxGeometry width="90" height="20" as="geometry">
            <mxRectangle width="90" height="20" as="alternateBounds" />
          </mxGeometry>
        </mxCell>
        <mxCell id="Eb41rm3-mO_iX7q0-oNB-57" value="Value 5" style="connectable=0;recursiveResize=0;strokeColor=inherit;fillColor=inherit;whiteSpace=wrap;html=1;" vertex="1" parent="Eb41rm3-mO_iX7q0-oNB-55">
          <mxGeometry x="90" width="90" height="20" as="geometry">
            <mxRectangle width="90" height="20" as="alternateBounds" />
          </mxGeometry>
        </mxCell>
        <mxCell id="Eb41rm3-mO_iX7q0-oNB-58" value="Value 6" style="connectable=0;recursiveResize=0;strokeColor=inherit;fillColor=inherit;whiteSpace=wrap;html=1;" vertex="1" parent="Eb41rm3-mO_iX7q0-oNB-55">
          <mxGeometry x="180" width="90" height="20" as="geometry">
            <mxRectangle width="90" height="20" as="alternateBounds" />
          </mxGeometry>
        </mxCell>
        <mxCell id="Eb41rm3-mO_iX7q0-oNB-59" value="" style="shape=tableRow;horizontal=0;startSize=0;swimlaneHead=0;swimlaneBody=0;top=0;left=0;bottom=0;right=0;dropTarget=0;collapsible=0;recursiveResize=0;expand=0;fontStyle=0;strokeColor=inherit;fillColor=#ffffff;" vertex="1" parent="Eb41rm3-mO_iX7q0-oNB-46">
          <mxGeometry y="63" width="270" height="22" as="geometry" />
        </mxCell>
        <mxCell id="Eb41rm3-mO_iX7q0-oNB-60" value="Value 7" style="connectable=0;recursiveResize=0;strokeColor=inherit;fillColor=inherit;fontStyle=0;align=center;whiteSpace=wrap;html=1;" vertex="1" parent="Eb41rm3-mO_iX7q0-oNB-59">
          <mxGeometry width="90" height="22" as="geometry">
            <mxRectangle width="90" height="22" as="alternateBounds" />
          </mxGeometry>
        </mxCell>
        <mxCell id="Eb41rm3-mO_iX7q0-oNB-61" value="Value 8" style="connectable=0;recursiveResize=0;strokeColor=inherit;fillColor=inherit;fontStyle=0;align=center;whiteSpace=wrap;html=1;" vertex="1" parent="Eb41rm3-mO_iX7q0-oNB-59">
          <mxGeometry x="90" width="90" height="22" as="geometry">
            <mxRectangle width="90" height="22" as="alternateBounds" />
          </mxGeometry>
        </mxCell>
        <mxCell id="Eb41rm3-mO_iX7q0-oNB-62" value="Value 9" style="connectable=0;recursiveResize=0;strokeColor=inherit;fillColor=inherit;fontStyle=0;align=center;whiteSpace=wrap;html=1;" vertex="1" parent="Eb41rm3-mO_iX7q0-oNB-59">
          <mxGeometry x="180" width="90" height="22" as="geometry">
            <mxRectangle width="90" height="22" as="alternateBounds" />
          </mxGeometry>
        </mxCell>
        <mxCell id="Eb41rm3-mO_iX7q0-oNB-63" value="" style="shape=tableRow;horizontal=0;startSize=0;swimlaneHead=0;swimlaneBody=0;top=0;left=0;bottom=0;right=0;dropTarget=0;collapsible=0;recursiveResize=0;expand=0;fontStyle=1;strokeColor=inherit;fillColor=#EAF2D3;" vertex="1" parent="Eb41rm3-mO_iX7q0-oNB-46">
          <mxGeometry y="85" width="270" height="20" as="geometry" />
        </mxCell>
        <mxCell id="Eb41rm3-mO_iX7q0-oNB-64" value="Value 10" style="connectable=0;recursiveResize=0;strokeColor=inherit;fillColor=inherit;whiteSpace=wrap;html=1;" vertex="1" parent="Eb41rm3-mO_iX7q0-oNB-63">
          <mxGeometry width="90" height="20" as="geometry">
            <mxRectangle width="90" height="20" as="alternateBounds" />
          </mxGeometry>
        </mxCell>
        <mxCell id="Eb41rm3-mO_iX7q0-oNB-65" value="Value 11" style="connectable=0;recursiveResize=0;strokeColor=inherit;fillColor=inherit;whiteSpace=wrap;html=1;" vertex="1" parent="Eb41rm3-mO_iX7q0-oNB-63">
          <mxGeometry x="90" width="90" height="20" as="geometry">
            <mxRectangle width="90" height="20" as="alternateBounds" />
          </mxGeometry>
        </mxCell>
        <mxCell id="Eb41rm3-mO_iX7q0-oNB-66" value="Value 12" style="connectable=0;recursiveResize=0;strokeColor=inherit;fillColor=inherit;whiteSpace=wrap;html=1;" vertex="1" parent="Eb41rm3-mO_iX7q0-oNB-63">
          <mxGeometry x="180" width="90" height="20" as="geometry">
            <mxRectangle width="90" height="20" as="alternateBounds" />
          </mxGeometry>
        </mxCell>
        <mxCell id="Eb41rm3-mO_iX7q0-oNB-67" value="Medicinas" style="text;html=1;align=center;verticalAlign=middle;whiteSpace=wrap;rounded=0;" vertex="1" parent="1">
          <mxGeometry x="1260" y="1490" width="110" height="30" as="geometry" />
        </mxCell>
      </root>
    </mxGraphModel>
  </diagram>
</mxfile>
